<svg xmlns="http://www.w3.org/2000/svg" viewBox="0 0 220 150" width="220" height="150"><defs><linearGradient id="ridge" x1="0" y1="0" x2="1" y2="0"><stop offset="0" stop-color="#2C2B6B"/><stop offset="1" stop-color="#5B63C7"/></linearGradient></defs><g transform="translate(60.0 0)"><circle cx="68" cy="40" r="19" fill="none" stroke="#FBE7B8" stroke-width="1.5"/><circle cx="68" cy="40" r="13" fill="#F2B84B"/><path pathLength="1" d="M6 70 C 18 70, 24 28, 36 28 C 48 28, 50 62, 60 62 C 72 62, 76 46, 94 46" fill="none" stroke="url(#ridge)" stroke-width="3.2" stroke-linecap="round"/></g><g transform="translate(19.29 128)"><g><path fill="#23224A" d="M23.03 0.01Q22.51 0.01 22.17 -0.32Q21.84 -0.65 21.84 -1.17V-9.21Q21.84 -11.13 20.85 -12.20Q19.87 -13.27 18.31 -13.27Q16.66 -13.27 15.61 -12.15Q14.55 -11.04 14.57 -9.22H12.52Q12.54 -11.08 13.32 -12.49Q14.11 -13.91 15.49 -14.69Q16.88 -15.48 18.64 -15.48Q20.27 -15.48 21.54 -14.72Q22.80 -13.96 23.50 -12.55Q24.21 -11.15 24.21 -9.21V-1.17Q24.21 -0.65 23.88 -0.32Q23.56 0.01 23.03 0.01ZM3.72 0.01Q3.18 0.01 2.85 -0.32Q2.52 -0.65 2.52 -1.17V-14.11Q2.52 -14.64 2.85 -14.97Q3.18 -15.31 3.72 -15.31Q4.24 -15.31 4.57 -14.97Q4.89 -14.64 4.89 -14.11V-1.17Q4.89 -0.65 4.57 -0.32Q4.24 0.01 3.72 0.01ZM13.40 0.01Q12.88 0.01 12.54 -0.32Q12.20 -0.65 12.20 -1.17V-9.21Q12.20 -11.13 11.22 -12.20Q10.23 -13.27 8.68 -13.27Q7.03 -13.27 5.96 -12.17Q4.89 -11.08 4.89 -9.33H3.28Q3.32 -11.14 4.06 -12.52Q4.80 -13.91 6.08 -14.69Q7.37 -15.48 9.01 -15.48Q10.64 -15.48 11.90 -14.72Q13.16 -13.96 13.87 -12.55Q14.57 -11.15 14.57 -9.21V-1.17Q14.57 -0.65 14.25 -0.32Q13.92 0.01 13.40 0.01Z M35.59 0.13Q33.47 0.13 31.79 -0.89Q30.10 -1.91 29.13 -3.67Q28.15 -5.43 28.15 -7.64Q28.15 -9.88 29.17 -11.64Q30.19 -13.40 31.95 -14.43Q33.71 -15.45 35.92 -15.45Q38.12 -15.45 39.87 -14.43Q41.61 -13.40 42.63 -11.64Q43.65 -9.88 43.67 -7.64L42.74 -7.18Q42.74 -5.11 41.80 -3.45Q40.86 -1.80 39.25 -0.83Q37.63 0.13 35.59 0.13ZM35.92 -2.00Q37.48 -2.00 38.71 -2.74Q39.93 -3.47 40.64 -4.76Q41.36 -6.05 41.36 -7.65Q41.36 -9.27 40.64 -10.55Q39.93 -11.83 38.71 -12.57Q37.48 -13.32 35.92 -13.32Q34.38 -13.32 33.14 -12.57Q31.90 -11.83 31.17 -10.55Q30.45 -9.27 30.45 -7.65Q30.45 -6.04 31.17 -4.76Q31.90 -3.47 33.14 -2.74Q34.38 -2.00 35.92 -2.00ZM42.48 0.01Q41.96 0.01 41.62 -0.32Q41.28 -0.65 41.28 -1.17V-5.80L41.81 -8.24L43.67 -7.64V-1.17Q43.67 -0.65 43.34 -0.32Q43.00 0.01 42.48 0.01Z M60.95 0.01Q60.43 0.01 60.09 -0.33Q59.76 -0.67 59.76 -1.17V-8.33Q59.76 -10.02 59.12 -11.11Q58.48 -12.19 57.39 -12.73Q56.30 -13.27 54.92 -13.27Q53.60 -13.27 52.55 -12.75Q51.49 -12.24 50.87 -11.35Q50.25 -10.47 50.25 -9.33H48.64Q48.68 -11.10 49.56 -12.48Q50.45 -13.87 51.93 -14.67Q53.42 -15.48 55.24 -15.48Q57.21 -15.48 58.77 -14.65Q60.32 -13.82 61.23 -12.23Q62.13 -10.63 62.13 -8.33V-1.17Q62.13 -0.67 61.79 -0.33Q61.45 0.01 60.95 0.01ZM49.08 0.01Q48.54 0.01 48.21 -0.32Q47.88 -0.65 47.88 -1.17V-14.12Q47.88 -14.67 48.21 -14.99Q48.54 -15.32 49.08 -15.32Q49.60 -15.32 49.93 -14.99Q50.25 -14.67 50.25 -14.12V-1.17Q50.25 -0.65 49.93 -0.32Q49.60 0.01 49.08 0.01Z M73.53 0.13Q71.41 0.13 69.73 -0.89Q68.04 -1.91 67.07 -3.67Q66.09 -5.43 66.09 -7.64Q66.09 -9.88 67.11 -11.64Q68.13 -13.40 69.89 -14.43Q71.65 -15.45 73.86 -15.45Q76.06 -15.45 77.81 -14.43Q79.55 -13.40 80.57 -11.64Q81.59 -9.88 81.61 -7.64L80.68 -7.18Q80.68 -5.11 79.74 -3.45Q78.80 -1.80 77.19 -0.83Q75.57 0.13 73.53 0.13ZM73.86 -2.00Q75.42 -2.00 76.65 -2.74Q77.87 -3.47 78.58 -4.76Q79.30 -6.05 79.30 -7.65Q79.30 -9.27 78.58 -10.55Q77.87 -11.83 76.65 -12.57Q75.42 -13.32 73.86 -13.32Q72.32 -13.32 71.08 -12.57Q69.84 -11.83 69.11 -10.55Q68.39 -9.27 68.39 -7.65Q68.39 -6.04 69.11 -4.76Q69.84 -3.47 71.08 -2.74Q72.32 -2.00 73.86 -2.00ZM80.42 0.01Q79.90 0.01 79.56 -0.32Q79.22 -0.65 79.22 -1.17V-5.80L79.75 -8.24L81.61 -7.64V-1.17Q81.61 -0.65 81.28 -0.32Q80.94 0.01 80.42 0.01Z M89.23 0.00Q88.07 0.00 87.17 -0.63Q86.27 -1.27 85.76 -2.38Q85.26 -3.49 85.26 -4.95V-20.70Q85.26 -21.22 85.58 -21.55Q85.91 -21.87 86.43 -21.87Q86.95 -21.87 87.27 -21.55Q87.59 -21.22 87.59 -20.70V-4.95Q87.59 -3.80 88.06 -3.06Q88.52 -2.33 89.23 -2.33H89.93Q90.39 -2.33 90.67 -2.01Q90.95 -1.69 90.95 -1.17Q90.95 -0.65 90.55 -0.32Q90.14 0.00 89.50 0.00Z M95.48 0.00Q94.94 0.00 94.61 -0.33Q94.28 -0.66 94.28 -1.20V-14.12Q94.28 -14.67 94.61 -14.99Q94.94 -15.32 95.48 -15.32Q96.00 -15.32 96.33 -14.99Q96.65 -14.67 96.65 -14.12V-1.20Q96.65 -0.66 96.33 -0.33Q96.00 0.00 95.48 0.00ZM95.46 -18.10Q94.80 -18.10 94.32 -18.58Q93.84 -19.06 93.84 -19.73Q93.84 -20.45 94.33 -20.90Q94.82 -21.35 95.48 -21.35Q96.12 -21.35 96.60 -20.90Q97.09 -20.45 97.09 -19.73Q97.09 -19.06 96.61 -18.58Q96.13 -18.10 95.46 -18.10Z"/><path fill="#5B63C7" transform="translate(107.77 0)" d="M9.27 0.14Q7.11 0.14 5.40 -0.88Q3.70 -1.90 2.70 -3.67Q1.71 -5.43 1.71 -7.64Q1.71 -9.88 2.73 -11.65Q3.75 -13.41 5.52 -14.43Q7.28 -15.46 9.49 -15.46Q11.70 -15.46 13.45 -14.43Q15.20 -13.41 16.23 -11.65Q17.25 -9.88 17.28 -7.64L16.41 -6.97Q16.41 -4.96 15.47 -3.35Q14.53 -1.74 12.92 -0.80Q11.31 0.14 9.27 0.14ZM9.49 -1.82Q11.12 -1.82 12.39 -2.58Q13.66 -3.33 14.41 -4.66Q15.15 -5.99 15.15 -7.64Q15.15 -9.32 14.41 -10.64Q13.66 -11.96 12.39 -12.73Q11.12 -13.50 9.49 -13.50Q7.90 -13.50 6.61 -12.73Q5.32 -11.96 4.56 -10.64Q3.81 -9.32 3.81 -7.64Q3.81 -5.99 4.56 -4.66Q5.32 -3.33 6.61 -2.58Q7.90 -1.82 9.49 -1.82ZM16.18 0.00Q15.71 0.00 15.40 -0.29Q15.09 -0.59 15.09 -1.06V-5.85L15.62 -8.06L17.28 -7.64V-1.06Q17.28 -0.59 16.97 -0.29Q16.66 0.00 16.18 0.00Z M22.57 6.55Q22.06 6.55 21.77 6.26Q21.48 5.96 21.48 5.46V-7.76Q21.50 -9.94 22.53 -11.69Q23.55 -13.44 25.30 -14.45Q27.05 -15.46 29.23 -15.46Q31.47 -15.46 33.24 -14.43Q35.00 -13.41 36.02 -11.65Q37.04 -9.88 37.04 -7.64Q37.04 -5.43 36.05 -3.67Q35.06 -1.90 33.35 -0.88Q31.64 0.14 29.48 0.14Q27.61 0.14 26.08 -0.66Q24.56 -1.46 23.63 -2.77V5.46Q23.63 5.96 23.34 6.26Q23.04 6.55 22.57 6.55ZM29.23 -1.82Q30.86 -1.82 32.14 -2.58Q33.43 -3.33 34.17 -4.66Q34.92 -5.99 34.92 -7.64Q34.92 -9.32 34.17 -10.64Q33.43 -11.96 32.14 -12.73Q30.86 -13.50 29.23 -13.50Q27.64 -13.50 26.35 -12.73Q25.06 -11.96 24.33 -10.64Q23.60 -9.32 23.60 -7.64Q23.60 -5.99 24.33 -4.66Q25.06 -3.33 26.35 -2.58Q27.64 -1.82 29.23 -1.82Z M42.36 6.55Q41.86 6.55 41.57 6.26Q41.27 5.96 41.27 5.46V-7.76Q41.30 -9.94 42.32 -11.69Q43.34 -13.44 45.09 -14.45Q46.84 -15.46 49.03 -15.46Q51.27 -15.46 53.03 -14.43Q54.80 -13.41 55.82 -11.65Q56.84 -9.88 56.84 -7.64Q56.84 -5.43 55.85 -3.67Q54.85 -1.90 53.14 -0.88Q51.44 0.14 49.28 0.14Q47.40 0.14 45.88 -0.66Q44.35 -1.46 43.43 -2.77V5.46Q43.43 5.96 43.13 6.26Q42.84 6.55 42.36 6.55ZM49.03 -1.82Q50.65 -1.82 51.94 -2.58Q53.23 -3.33 53.97 -4.66Q54.71 -5.99 54.71 -7.64Q54.71 -9.32 53.97 -10.64Q53.23 -11.96 51.94 -12.73Q50.65 -13.50 49.03 -13.50Q47.43 -13.50 46.14 -12.73Q44.86 -11.96 44.13 -10.64Q43.40 -9.32 43.40 -7.64Q43.40 -5.99 44.13 -4.66Q44.86 -3.33 46.14 -2.58Q47.43 -1.82 49.03 -1.82Z M66.42 0.14Q64.76 0.14 63.14 -0.42Q61.52 -0.98 60.51 -2.10Q60.20 -2.44 60.26 -2.86Q60.31 -3.28 60.68 -3.58Q61.07 -3.86 61.49 -3.81Q61.91 -3.75 62.19 -3.44Q62.86 -2.66 63.97 -2.24Q65.07 -1.82 66.42 -1.82Q68.49 -1.82 69.41 -2.53Q70.34 -3.25 70.36 -4.26Q70.36 -5.26 69.41 -5.92Q68.46 -6.58 66.28 -6.94Q63.45 -7.39 62.13 -8.51Q60.82 -9.63 60.82 -11.17Q60.82 -12.60 61.57 -13.55Q62.33 -14.50 63.59 -14.98Q64.85 -15.46 66.36 -15.46Q68.24 -15.46 69.59 -14.81Q70.95 -14.17 71.79 -13.08Q72.07 -12.71 72.02 -12.32Q71.96 -11.93 71.57 -11.68Q71.23 -11.48 70.80 -11.55Q70.36 -11.62 70.06 -11.96Q69.36 -12.77 68.43 -13.15Q67.51 -13.52 66.30 -13.52Q64.76 -13.52 63.84 -12.89Q62.92 -12.26 62.92 -11.31Q62.92 -10.67 63.27 -10.19Q63.62 -9.72 64.47 -9.35Q65.32 -8.99 66.86 -8.74Q68.96 -8.40 70.18 -7.74Q71.40 -7.08 71.92 -6.20Q72.44 -5.32 72.44 -4.28Q72.44 -2.97 71.67 -1.97Q70.90 -0.98 69.54 -0.42Q68.18 0.14 66.42 0.14Z"/></g></g></svg>